<?xml version="1.0" standalone="no"?>
<!DOCTYPE svg PUBLIC "-//W3C//DTD SVG 20010904//EN"
 "http://www.w3.org/TR/2001/REC-SVG-20010904/DTD/svg10.dtd">
<svg version="1.0" xmlns="http://www.w3.org/2000/svg"
 width="128.000000pt" height="128.000000pt" viewBox="0 0 128.000000 128.000000"
 preserveAspectRatio="xMidYMid meet">
<metadata>
Created by potrace 1.11, written by Peter Selinger 2001-2013
</metadata>
<g transform="translate(0.000000,128.000000) scale(0.100000,-0.100000)"
fill="#000000" stroke="none">
<path d="M347 1072 c-86 -86 -157 -161 -157 -165 0 -4 72 -81 160 -170 l160
-162 66 66 66 66 -28 49 c-26 44 -29 58 -29 134 0 85 7 111 53 182 l17 28 -65
65 c-35 36 -69 65 -75 65 -6 0 -81 -71 -168 -158z"/>
<path d="M767 1156 c-59 -21 -108 -58 -96 -73 8 -9 21 -5 55 17 159 101 365
-14 366 -204 0 -52 -5 -74 -27 -115 -16 -28 -32 -51 -36 -51 -19 0 -18 22 2
60 35 67 36 129 5 194 -35 70 -87 108 -162 114 -58 5 -132 -16 -154 -44 -16
-18 0 -18 26 0 38 27 107 39 153 26 50 -13 109 -63 127 -107 32 -74 1 -216
-42 -199 -9 3 -27 -3 -41 -14 -14 -11 -30 -20 -36 -20 -5 0 5 10 23 23 56 38
75 72 74 133 0 85 -55 144 -141 151 -118 10 -199 -113 -147 -223 22 -47 65
-75 127 -84 48 -7 49 -8 14 -9 -22 0 -54 6 -73 15 -19 9 -37 14 -41 11 -12
-13 20 -36 66 -47 56 -13 113 -2 154 30 28 22 37 25 37 10 0 -5 -20 -21 -43
-35 -57 -33 -144 -35 -201 -4 -27 14 -42 17 -49 10 -16 -16 16 -37 83 -57 67
-21 137 -10 198 31 22 14 46 23 55 19 11 -4 23 6 41 33 53 82 57 182 11 273
-60 117 -207 179 -328 136z m158 -146 c36 -22 65 -73 65 -115 0 -39 -30 -99
-43 -86 -7 7 -7 19 1 36 25 53 6 119 -41 144 -24 13 -77 11 -124 -4 -33 -10
-29 11 5 29 39 22 99 20 137 -4z m-8 -52 c17 -16 23 -33 23 -64 0 -35 -5 -47
-31 -68 -17 -15 -42 -26 -57 -25 -26 1 -26 1 4 8 38 9 54 19 54 32 0 6 -9 7
-22 3 -13 -4 -34 -8 -48 -9 -16 0 -24 -6 -22 -14 2 -12 -1 -11 -19 1 -26 17
-37 40 -17 36 8 -2 12 5 11 20 -2 13 1 31 7 41 12 23 1 35 -17 19 -11 -8 -12
-7 -7 6 18 47 98 55 141 14z m-150 -75 c-3 -10 -5 -4 -5 12 0 17 2 24 5 18 2
-7 2 -21 0 -30z"/>
<path d="M816 924 c-19 -19 -20 -35 -3 -56 19 -24 43 -28 66 -12 23 17 28 53
9 72 -17 17 -54 15 -72 -4z"/>
<path d="M643 1013 c-38 -66 -40 -167 -4 -230 14 -24 28 -43 32 -43 17 0 20
22 5 45 -40 61 -38 166 4 226 24 32 25 49 5 49 -8 0 -27 -21 -42 -47z"/>
<path d="M698 1008 c-43 -66 -46 -155 -8 -213 15 -22 20 -26 25 -14 3 8 -1 29
-10 45 -21 40 -19 102 5 147 11 20 20 41 20 47 0 17 -17 11 -32 -12z"/>
<path d="M1026 681 c-10 -11 -41 -29 -69 -41 -72 -31 -175 -25 -242 15 l-47
27 -64 -63 -64 -64 162 -162 c90 -90 167 -163 173 -163 5 0 81 74 167 164
l157 163 -72 71 c-40 40 -75 72 -78 72 -3 0 -14 -9 -23 -19z"/>
<path d="M138 543 l-57 -58 86 -88 87 -88 60 60 61 61 -85 85 c-46 47 -87 85
-90 85 -3 0 -31 -26 -62 -57z"/>
<path d="M392 407 c-61 -62 -112 -117 -112 -122 0 -13 222 -235 235 -235 6 0
63 53 128 118 l117 117 -118 118 c-64 64 -122 117 -127 117 -6 0 -61 -51 -123
-113z"/>
</g>
</svg>
