<svg width="54" height="48" viewBox="0 0 54 48" fill="none" xmlns="http://www.w3.org/2000/svg">
<path d="M52.5 21H49.7344C48.9094 19.125 47.7094 17.4656 46.2281 16.0781L48 9H45C42.2437 9 39.8062 10.2656 38.1562 12.2156C37.4437 12.1125 36.7406 12 36 12H24C16.7437 12 10.6969 17.1562 9.3 24H5.25C3.8625 24 2.76562 22.7344 3.04687 21.3C3.25312 20.2312 4.25625 19.5 5.34375 19.5H5.4375C5.74687 19.5 6 19.2469 6 18.9375V17.0625C6 16.7531 5.74687 16.5 5.4375 16.5C2.76562 16.5 0.384375 18.4125 0.0468749 21.0563C-0.365625 24.2625 2.12812 27 5.25 27H9C9 31.8937 11.3813 36.1969 15 38.9344V46.5C15 47.325 15.675 48 16.5 48H22.5C23.325 48 24 47.325 24 46.5V42H36V46.5C36 47.325 36.675 48 37.5 48H43.5C44.325 48 45 47.325 45 46.5V38.9344C46.1063 38.1 47.0906 37.1156 47.9344 36H52.5C53.325 36 54 35.325 54 34.5V22.5C54 21.675 53.325 21 52.5 21ZM40.5 27C39.675 27 39 26.325 39 25.5C39 24.675 39.675 24 40.5 24C41.325 24 42 24.675 42 25.5C42 26.325 41.325 27 40.5 27ZM24 9H36C36.5062 9 37.0031 9.0375 37.4906 9.075C37.4906 9.04688 37.5 9.02812 37.5 9C37.5 4.03125 33.4688 0 28.5 0C23.5312 0 19.5 4.03125 19.5 9C19.5 9.19687 19.5469 9.38437 19.5563 9.58125C20.9813 9.21562 22.4625 9 24 9Z" fill="white"/>
</svg>
