<svg width="43" height="48" viewBox="0 0 43 48" fill="none" xmlns="http://www.w3.org/2000/svg">
<path d="M5.25702 28.6667L30.898 28.669C31.1407 29.0703 31.4347 29.4413 31.7847 29.7727L33.4624 31.364C33.245 32.1855 32.9152 32.9731 32.4824 33.7043C32.0433 34.4673 31.5042 35.168 30.8794 35.788L29.0267 35.1697C27.9643 34.82 26.8165 34.8285 25.7594 35.1939C24.7023 35.5593 23.7943 36.2615 23.1747 37.1927L21.4924 39.666C20.7806 40.7182 20.4545 41.9841 20.5693 43.2492C20.6841 44.5143 21.2328 45.7008 22.1224 46.6077L22.652 47.1397C21.3874 47.2703 20.062 47.3357 18.6667 47.3357C11.9234 47.3357 6.70135 45.805 3.05435 42.669C2.09847 41.8476 1.3313 40.8294 0.805351 39.6841C0.279401 38.5388 0.00707978 37.2933 0.00701904 36.033V33.9167C0.00701904 33.2272 0.142814 32.5445 0.406652 31.9076C0.670489 31.2706 1.0572 30.6919 1.54471 30.2044C2.03222 29.7169 2.61097 29.3301 3.24793 29.0663C3.88489 28.8025 4.56758 28.6667 5.25702 28.6667ZM32.69 24.5717L33.866 21.802C34.4167 20.5047 35.735 19.7977 37.03 20.0683L37.3054 20.1383L38.7754 20.6097C40.2337 21.0763 41.3514 22.3247 41.713 23.8927C42.5694 27.6213 41.5404 32.1597 38.6284 37.51C35.7187 42.8533 32.529 46.064 29.0617 47.1467C28.3996 47.3518 27.6963 47.386 27.0174 47.246C26.3385 47.1061 25.7061 46.7966 25.179 46.3463L24.892 46.0827L23.7744 44.9627C23.3045 44.4789 23.001 43.858 22.9078 43.1901C22.8147 42.5221 22.9368 41.8419 23.2564 41.248L23.422 40.9773L25.1044 38.504C25.767 37.531 26.901 37.0713 27.993 37.3023L28.2894 37.384L31.3974 38.42C32.6585 37.4581 33.7138 36.2529 34.5007 34.8757C35.1811 33.7315 35.6521 32.4752 35.8914 31.1657L35.98 30.5357L33.3924 28.081C32.9744 27.674 32.6774 27.1593 32.534 26.5938C32.3907 26.0284 32.4067 25.4343 32.5804 24.8773L32.69 24.574L33.866 21.802L32.69 24.5717V24.5717ZM18.6667 0.678345C20.1988 0.678345 21.7159 0.980111 23.1313 1.56642C24.5468 2.15272 25.8329 3.01208 26.9163 4.09543C27.9996 5.17878 28.859 6.46491 29.4453 7.88037C30.0316 9.29584 30.3334 10.8129 30.3334 12.345C30.3334 13.8771 30.0316 15.3942 29.4453 16.8097C28.859 18.2251 27.9996 19.5112 26.9163 20.5946C25.8329 21.6779 24.5468 22.5373 23.1313 23.1236C21.7159 23.7099 20.1988 24.0117 18.6667 24.0117C15.5725 24.0117 12.605 22.7825 10.4171 20.5946C8.22918 18.4067 7.00002 15.4392 7.00002 12.345C7.00002 9.25082 8.22918 6.28336 10.4171 4.09543C12.605 1.90751 15.5725 0.678345 18.6667 0.678345V0.678345Z" fill="white"/>
</svg>
