<svg width="50" height="50" viewBox="0 0 50 50" fill="none" xmlns="http://www.w3.org/2000/svg">
<path d="M25 0.111115C20.0774 0.111115 15.2654 1.57082 11.1725 4.30565C7.0795 7.04047 3.88943 10.9276 2.00565 15.4754C0.121868 20.0233 -0.371015 25.0276 0.589328 29.8556C1.54967 34.6836 3.92011 39.1183 7.40088 42.5991C10.8817 46.0799 15.3164 48.4503 20.1444 49.4107C24.9724 50.371 29.9767 49.8781 34.5246 47.9943C39.0724 46.1106 42.9595 42.9205 45.6943 38.8275C48.4292 34.7346 49.8889 29.9226 49.8889 25C49.8889 18.3991 47.2667 12.0685 42.5991 7.4009C37.9315 2.73333 31.6009 0.111115 25 0.111115ZM34.6444 33.0578C34.5314 33.2288 34.3857 33.3758 34.2157 33.4903C34.0457 33.6048 33.8548 33.6846 33.6539 33.725C33.4529 33.7655 33.246 33.7659 33.0449 33.7261C32.8438 33.6864 32.6526 33.6072 32.4822 33.4933L23.3044 27.2711V13.7222C23.3044 13.3097 23.4683 12.914 23.76 12.6223C24.0518 12.3306 24.4474 12.1667 24.86 12.1667C25.2725 12.1667 25.6682 12.3306 25.9599 12.6223C26.2517 12.914 26.4155 13.3097 26.4155 13.7222V25.6222L34.1933 30.8956C34.3656 31.0073 34.514 31.1521 34.63 31.3216C34.746 31.491 34.8273 31.6817 34.8693 31.8827C34.9112 32.0837 34.9129 32.291 34.8743 32.4927C34.8357 32.6944 34.7576 32.8864 34.6444 33.0578ZM34.1 9.80223C31.9113 8.48298 29.463 7.65283 26.9233 7.36874C24.3836 7.08464 21.8125 7.35331 19.3863 8.15633C16.9602 8.95935 14.7365 10.2777 12.8678 12.0209C10.9991 13.7642 9.5296 15.891 8.56017 18.2556C7.59073 20.6202 7.14429 23.1664 7.25147 25.7198C7.35865 28.2731 8.01691 30.773 9.1811 33.048C10.3453 35.323 11.9878 37.3192 13.9961 38.8997C16.0043 40.4802 18.3307 41.6076 20.8155 42.2044L20.3333 44.6467C17.4835 43.9833 14.8115 42.7095 12.5019 40.913C10.1922 39.1165 8.3 36.8402 6.95574 34.2412C5.61149 31.6422 4.84726 28.7825 4.7158 25.8594C4.58435 22.9363 5.08881 20.0195 6.19435 17.3104C7.29989 14.6012 8.98018 12.1643 11.1192 10.1677C13.2583 8.17118 15.8051 6.66261 18.5839 5.74616C21.3628 4.82971 24.3074 4.52722 27.2145 4.85956C30.1216 5.1919 32.9219 6.15116 35.4222 7.67111L34.1 9.80223Z" fill="white"/>
</svg>
