<svg width="48" height="48" viewBox="0 0 48 48" fill="none" xmlns="http://www.w3.org/2000/svg">
<path d="M45 5.33332H38V2.99999C38 2.38115 37.7542 1.78766 37.3166 1.35007C36.879 0.912489 36.2855 0.666656 35.6667 0.666656H12.3333C11.7145 0.666656 11.121 0.912489 10.6834 1.35007C10.2458 1.78766 10 2.38115 10 2.99999V5.33332H3C2.38116 5.33332 1.78767 5.57916 1.35008 6.01674C0.912497 6.45433 0.666664 7.04782 0.666664 7.66666V14.6667C0.666664 24.7233 4.86666 30.79 11.9133 31C12.9415 32.7779 14.3482 34.3078 16.0338 35.4812C17.7193 36.6547 19.6424 37.4429 21.6667 37.79V42.6667H17V47.3333H31V42.6667H26.3333V37.79C28.3576 37.4429 30.2807 36.6547 31.9662 35.4812C33.6518 34.3078 35.0585 32.7779 36.0867 31C43.0867 30.7667 47.3333 24.7 47.3333 14.6667V7.66666C47.3333 7.04782 47.0875 6.45433 46.6499 6.01674C46.2123 5.57916 45.6188 5.33332 45 5.33332ZM5.33333 14.6667V9.99999H10V25.9367C5.84666 24.1867 5.33333 17.7 5.33333 14.6667ZM38 25.9367V9.99999H42.6667V14.6667C42.6667 17.7 42.1533 24.1867 38 25.9367Z" fill="white"/>
</svg>
